<svg xmlns="http://www.w3.org/2000/svg" xmlns:xlink="http://www.w3.org/1999/xlink" width="200" zoomAndPan="magnify" viewBox="0 0 150 149.999998" height="200" preserveAspectRatio="xMidYMid meet" version="1.0"><defs><g/><clipPath id="0e24df8b3b"><path d="M 9 9.410156 L 141 9.410156 L 141 140.660156 L 9 140.660156 Z M 9 9.410156 " clip-rule="nonzero"/></clipPath><clipPath id="da03f778ce"><path d="M 130 65 L 149.953125 65 L 149.953125 72 L 130 72 Z M 130 65 " clip-rule="nonzero"/></clipPath></defs><path fill="#1a1a1a" d="M 112.648438 114.65625 C 102.84375 124.007812 89.566406 129.753906 74.953125 129.753906 C 60.339844 129.753906 47.0625 124.007812 37.257812 114.65625 L 38.511719 114.65625 C 48.097656 123.492188 60.894531 128.890625 74.953125 128.890625 C 89.011719 128.890625 101.808594 123.492188 111.394531 114.65625 Z M 74.953125 20.316406 C 90.046875 20.316406 103.710938 26.441406 113.601562 36.34375 C 122.800781 45.554688 128.734375 58.035156 129.519531 71.890625 L 128.660156 71.890625 C 127.878906 58.269531 122.039062 46.007812 112.996094 36.953125 C 103.257812 27.207031 89.808594 21.175781 74.953125 21.175781 C 60.097656 21.175781 46.648438 27.207031 36.910156 36.953125 C 27.867188 46.007812 22.027344 58.269531 21.246094 71.890625 L 20.386719 71.890625 C 21.167969 58.035156 27.105469 45.554688 36.304688 36.34375 C 46.195312 26.441406 59.859375 20.316406 74.953125 20.316406 Z M 74.953125 20.316406 " fill-opacity="1" fill-rule="nonzero"/><g clip-path="url(#0e24df8b3b)"><path fill="#1a1a1a" d="M 33.492188 114.65625 L 35.886719 114.65625 C 45.929688 124.582031 59.722656 130.710938 74.953125 130.710938 C 90.179688 130.710938 103.976562 124.582031 114.019531 114.65625 L 116.414062 114.65625 C 105.902344 125.257812 91.214844 131.84375 74.953125 131.84375 C 58.695312 131.84375 44 125.257812 33.492188 114.65625 M 127.398438 114.65625 C 126.632812 115.671875 124.921875 115.980469 124.097656 116.949219 C 121.734375 114.851562 119.257812 115.402344 117.265625 117.394531 C 115.277344 119.386719 115.410156 122.78125 117.503906 125.148438 C 115.839844 126.570312 114.101562 127.90625 112.296875 129.15625 C 110.554688 126.511719 107.3125 125.503906 104.875 126.914062 C 102.433594 128.324219 101.683594 131.648438 103.105469 134.480469 C 101.136719 135.417969 99.109375 136.257812 97.035156 137 C 96.039062 133.988281 93.164062 132.167969 90.441406 132.898438 C 87.71875 133.628906 86.140625 136.640625 86.777344 139.746094 C 84.640625 140.136719 82.464844 140.417969 80.261719 140.597656 C 80.074219 137.4375 77.769531 134.941406 74.953125 134.941406 C 72.136719 134.941406 69.832031 137.4375 69.644531 140.597656 C 67.441406 140.417969 65.265625 140.136719 63.128906 139.746094 C 63.769531 136.640625 62.1875 133.628906 59.464844 132.898438 C 56.742188 132.167969 53.867188 133.988281 52.871094 137 C 50.796875 136.257812 48.773438 135.417969 46.800781 134.480469 C 48.222656 131.644531 47.476562 128.324219 45.035156 126.914062 C 42.59375 125.503906 39.351562 126.515625 37.609375 129.15625 C 35.808594 127.90625 34.066406 126.570312 32.402344 125.148438 C 34.496094 122.78125 34.628906 119.386719 32.640625 117.394531 C 30.648438 115.402344 28.027344 114.945312 25.664062 117.042969 C 24.839844 116.074219 23.273438 115.671875 22.507812 114.65625 L 33.261719 114.65625 C 43.734375 125.699219 58.539062 132.585938 74.953125 132.585938 C 91.367188 132.585938 106.171875 125.699219 116.648438 114.65625 Z M 74.953125 17.484375 C 94.453125 17.484375 111.679688 27.203125 122.078125 42.066406 C 111.585938 27.632812 94.386719 18.226562 74.953125 18.226562 C 55.519531 18.226562 38.320312 27.632812 27.828125 42.066406 C 38.226562 27.203125 55.453125 17.484375 74.953125 17.484375 Z M 80.261719 9.472656 C 82.464844 9.648438 84.640625 9.933594 86.777344 10.324219 C 86.140625 13.425781 87.71875 16.441406 90.441406 17.171875 C 93.164062 17.902344 96.039062 16.082031 97.035156 13.070312 C 99.109375 13.8125 101.136719 14.652344 103.105469 15.589844 C 101.683594 18.421875 102.433594 21.742188 104.875 23.15625 C 107.3125 24.5625 110.554688 23.554688 112.296875 20.914062 C 114.101562 22.164062 115.839844 23.5 117.503906 24.921875 C 115.410156 27.289062 115.277344 30.683594 117.265625 32.675781 C 119.257812 34.667969 122.648438 34.535156 125.011719 32.4375 C 126.429688 34.105469 127.765625 35.84375 129.015625 37.652344 C 126.375 39.394531 125.367188 42.640625 126.777344 45.082031 C 128.1875 47.523438 131.503906 48.273438 134.332031 46.851562 C 135.269531 48.824219 136.109375 50.851562 136.851562 52.929688 C 133.84375 53.925781 132.023438 56.804688 132.753906 59.53125 C 133.484375 62.253906 136.492188 63.835938 139.59375 63.199219 C 139.984375 65.335938 140.269531 67.511719 140.445312 69.71875 C 138.605469 69.828125 136.988281 70.660156 135.960938 71.890625 L 130.476562 71.890625 C 128.847656 42.605469 104.613281 19.359375 74.953125 19.359375 C 45.292969 19.359375 21.058594 42.605469 19.429688 71.890625 L 13.945312 71.890625 C 12.917969 70.660156 11.300781 69.832031 9.460938 69.71875 C 9.640625 67.515625 9.921875 65.335938 10.3125 63.199219 C 13.414062 63.835938 16.421875 62.253906 17.152344 59.53125 C 17.878906 56.804688 16.0625 53.925781 13.054688 52.929688 C 13.796875 50.851562 14.636719 48.824219 15.570312 46.851562 C 18.402344 48.273438 21.71875 47.527344 23.128906 45.082031 C 24.535156 42.640625 23.527344 39.394531 20.890625 37.652344 C 22.140625 35.84375 23.476562 34.105469 24.894531 32.4375 C 27.257812 34.535156 30.648438 34.667969 32.640625 32.675781 C 34.628906 30.683594 34.496094 27.289062 32.402344 24.921875 C 34.066406 23.5 35.804688 22.164062 37.609375 20.914062 C 39.351562 23.554688 42.59375 24.566406 45.03125 23.15625 C 47.472656 21.742188 48.222656 18.421875 46.800781 15.589844 C 48.773438 14.652344 50.796875 13.8125 52.871094 13.070312 C 53.867188 16.082031 56.742188 17.902344 59.464844 17.171875 C 62.1875 16.441406 63.769531 13.425781 63.128906 10.324219 C 65.265625 9.933594 67.441406 9.648438 69.644531 9.472656 C 69.832031 12.632812 72.136719 15.128906 74.953125 15.128906 C 77.769531 15.128906 80.074219 12.632812 80.261719 9.472656 Z M 80.261719 9.472656 " fill-opacity="1" fill-rule="evenodd"/></g><path fill="#1a1a1a" d="M 19.429688 71.890625 L -0.046875 71.890625 L 19.429688 65.882812 Z M 19.429688 71.890625 " fill-opacity="1" fill-rule="evenodd"/><g clip-path="url(#da03f778ce)"><path fill="#1a1a1a" d="M 130.476562 71.890625 L 149.953125 71.890625 L 130.476562 65.882812 Z M 130.476562 71.890625 " fill-opacity="1" fill-rule="evenodd"/></g><path fill="#1a1a1a" d="M 35.886719 114.65625 L 16.410156 114.65625 L 35.886719 120.664062 Z M 35.886719 114.65625 " fill-opacity="1" fill-rule="evenodd"/><path fill="#1a1a1a" d="M 114.019531 114.65625 L 133.496094 114.65625 L 114.019531 120.664062 Z M 114.019531 114.65625 " fill-opacity="1" fill-rule="evenodd"/><path fill="#1a1a1a" d="M 20.71875 70.523438 L 129.1875 70.523438 L 129.1875 71.890625 L 20.71875 71.890625 Z M 20.71875 70.523438 " fill-opacity="1" fill-rule="evenodd"/><path fill="#1a1a1a" d="M 64.59375 53.992188 C 64.734375 53.730469 64.640625 53.398438 64.382812 53.246094 L 55.855469 48.320312 C 55.59375 48.167969 55.25 48.257812 55.097656 48.523438 L 54.988281 48.707031 C 55.160156 48.613281 55.378906 48.613281 55.5625 48.71875 L 64.417969 53.835938 C 64.488281 53.878906 64.546875 53.929688 64.59375 53.992188 M 62.027344 55.632812 C 62.003906 55.71875 61.96875 55.804688 61.921875 55.882812 L 60.464844 58.410156 L 60.71875 58.558594 L 61.929688 56.457031 C 62.078125 56.199219 62.105469 55.902344 62.027344 55.632812 Z M 56.609375 52.984375 L 55.226562 55.382812 L 55.480469 55.53125 L 56.648438 53.457031 C 56.710938 53.355469 56.660156 53.117188 56.609375 52.984375 Z M 53.347656 54.296875 L 54.671875 51.996094 C 54.621094 52.054688 54.578125 52.117188 54.539062 52.183594 L 53.324219 54.285156 Z M 54.898438 55.195312 L 56.355469 52.664062 C 56.550781 52.328125 56.433594 51.894531 56.097656 51.699219 C 55.761719 51.503906 55.324219 51.621094 55.132812 51.957031 L 53.671875 54.484375 Z M 60.140625 58.222656 L 61.597656 55.695312 C 61.792969 55.355469 61.675781 54.921875 61.339844 54.726562 C 61 54.53125 60.566406 54.648438 60.371094 54.984375 L 58.914062 57.515625 Z M 64.570312 52.921875 L 64.445312 52.453125 L 57.929688 48.6875 L 64.558594 52.914062 Z M 51.308594 68.371094 L 50.308594 67.792969 L 50.109375 67.714844 C 50.722656 65.71875 52.601562 66.601562 52.601562 66.601562 L 52.53125 67.019531 Z M 80.726562 34.347656 L 78.007812 39.0625 L 78.859375 40.667969 L 78.378906 41.503906 L 74.488281 39.257812 L 70.898438 45.480469 L 69.371094 44.597656 L 68.902344 44.722656 L 62.386719 40.957031 L 69.027344 45.191406 L 68.558594 45.320312 L 62.042969 41.554688 L 68.683594 45.789062 L 68.214844 45.914062 L 61.699219 42.148438 L 68.34375 46.382812 L 67.875 46.507812 L 61.359375 42.742188 L 68 46.976562 L 67.53125 47.101562 L 67.65625 47.570312 L 67.53125 47.101562 L 61.015625 43.335938 L 67.65625 47.570312 L 67.1875 47.699219 L 67.3125 48.167969 L 67.1875 47.699219 L 60.671875 43.929688 L 67.3125 48.167969 L 66.84375 48.292969 L 66.96875 48.761719 L 66.84375 48.292969 L 60.328125 44.527344 L 66.96875 48.761719 L 66.503906 48.886719 L 66.628906 49.355469 L 66.503906 48.886719 L 59.984375 45.121094 L 66.628906 49.355469 L 66.160156 49.480469 L 66.285156 49.949219 L 66.160156 49.480469 L 59.644531 45.714844 L 66.285156 49.949219 L 65.816406 50.074219 L 65.941406 50.542969 L 65.816406 50.074219 L 59.300781 46.308594 L 65.941406 50.542969 L 65.476562 50.671875 L 65.601562 51.140625 L 65.597656 51.140625 L 65.472656 50.671875 L 58.957031 46.90625 L 65.597656 51.140625 L 65.132812 51.265625 L 65.257812 51.734375 L 65.132812 51.265625 L 58.617188 47.5 L 65.257812 51.734375 L 64.789062 51.859375 L 64.914062 52.328125 L 64.789062 51.859375 L 58.273438 48.09375 L 64.914062 52.328125 L 64.445312 52.453125 L 64.570312 52.921875 C 65.015625 53.179688 65.167969 53.753906 64.914062 54.199219 L 62.253906 58.804688 C 62 59.25 61.425781 59.402344 60.980469 59.148438 L 60.867188 59.082031 L 60.675781 59.417969 L 58.070312 57.914062 L 54.1875 64.644531 L 54.355469 64.738281 C 54.457031 64.800781 54.496094 64.933594 54.433594 65.042969 L 54.324219 65.230469 C 53.976562 65.832031 53.441406 66.65625 53.660156 67.066406 L 52.582031 68.9375 L 51.5625 68.8125 L 52.730469 67.421875 L 52.902344 66.460938 C 52.902344 66.460938 51.460938 65.847656 50.742188 66.484375 C 50.3125 66.871094 50.136719 67.367188 50.066406 67.703125 L 48.90625 67.257812 C 48.90625 67.257812 49.164062 66.132812 50.03125 65.261719 C 50.03125 65.261719 49.472656 65.089844 48.882812 65.1875 L 48.113281 66.523438 L 48.90625 67.257812 C 49.382812 66.253906 50.566406 65.125 50.566406 65.125 C 50.039062 64.691406 49.332031 64.875 48.984375 65.007812 L 49.265625 64.523438 C 49.726562 64.511719 50.171875 63.632812 50.519531 63.035156 L 50.628906 62.84375 C 50.691406 62.738281 50.828125 62.699219 50.929688 62.761719 L 51.097656 62.855469 L 54.980469 56.125 L 52.375 54.621094 L 52.566406 54.285156 L 52.457031 54.21875 C 52.011719 53.960938 51.859375 53.386719 52.113281 52.945312 L 54.769531 48.335938 C 55.027344 47.890625 55.601562 47.738281 56.042969 47.996094 L 56.046875 47.996094 L 56.511719 47.867188 L 56.386719 47.398438 L 56.855469 47.273438 L 56.730469 46.804688 L 57.199219 46.679688 L 57.074219 46.210938 L 57.542969 46.085938 L 57.417969 45.617188 L 57.886719 45.492188 L 57.757812 45.023438 L 58.226562 44.894531 L 58.101562 44.425781 L 58.570312 44.300781 L 58.445312 43.832031 L 58.914062 43.707031 L 58.789062 43.238281 L 59.257812 43.113281 L 59.132812 42.644531 L 59.601562 42.519531 L 59.472656 42.046875 L 59.941406 41.921875 L 59.816406 41.453125 L 60.285156 41.328125 L 60.160156 40.859375 L 60.628906 40.734375 L 60.503906 40.265625 L 60.972656 40.140625 L 60.84375 39.671875 L 59.316406 38.789062 L 62.90625 32.5625 L 59.019531 30.316406 L 59.5 29.480469 L 61.316406 29.414062 L 64.035156 24.703125 Z M 63.851562 25.933594 L 77.441406 33.789062 L 63.667969 26.253906 Z M 63.503906 26.539062 L 77.089844 34.394531 L 63.316406 26.859375 Z M 63.152344 27.144531 L 76.742188 35 L 62.96875 27.464844 Z M 62.804688 27.75 L 76.394531 35.601562 L 62.621094 28.070312 Z M 62.457031 28.351562 L 76.046875 36.207031 L 62.269531 28.671875 Z M 62.109375 28.957031 L 75.695312 36.8125 L 61.921875 29.277344 Z M 64.199219 25.332031 L 77.789062 33.183594 L 64.015625 25.648438 Z M 91.664062 23.523438 L 86.941406 31.707031 C 86.671875 32.175781 86.066406 32.339844 85.597656 32.070312 L 84.265625 31.296875 L 83.300781 32.96875 L 81 33.871094 L 64.308594 24.222656 L 63.941406 21.777344 L 63.960938 21.742188 C 67.441406 21.03125 80.496094 18.992188 91.664062 23.523438 Z M 91.664062 23.523438 " fill-opacity="1" fill-rule="evenodd"/><path fill="#1a1a1a" d="M 49.066406 28.582031 L 49.367188 29.042969 L 48.703125 28.785156 C 48.824219 28.71875 48.945312 28.652344 49.066406 28.582031 " fill-opacity="1" fill-rule="evenodd"/><path fill="#1a1a1a" d="M 58.5 24.453125 L 59.6875 26.273438 L 57.320312 25.359375 L 55.730469 27.335938 L 55.835938 25.402344 C 56.710938 25.0625 57.601562 24.746094 58.5 24.453125 " fill-opacity="1" fill-rule="evenodd"/><path fill="#1a1a1a" d="M 38.566406 36.285156 L 39.1875 37.246094 L 41.636719 36.585938 L 40.035156 38.554688 L 41.421875 40.679688 L 39.054688 39.765625 L 37.464844 41.742188 L 37.601562 39.207031 L 36.191406 38.667969 C 36.453125 38.386719 36.71875 38.109375 36.988281 37.835938 L 37.683594 37.648438 L 37.710938 37.109375 C 37.992188 36.832031 38.277344 36.554688 38.566406 36.285156 " fill-opacity="1" fill-rule="evenodd"/><path fill="#1a1a1a" d="M 48.128906 32.347656 L 49.507812 34.476562 L 51.953125 33.816406 L 50.355469 35.785156 L 51.738281 37.910156 L 49.375 36.996094 L 47.785156 38.972656 L 47.921875 36.4375 L 45.554688 35.535156 L 48.003906 34.882812 Z M 48.128906 32.347656 " fill-opacity="1" fill-rule="evenodd"/><path fill="#1a1a1a" d="M 58.726562 35.429688 L 58.101562 36.203125 L 58.242188 33.671875 L 55.871094 32.765625 L 57.933594 32.21875 L 59.917969 33.363281 Z M 58.726562 35.429688 " fill-opacity="1" fill-rule="evenodd"/><path fill="#1a1a1a" d="M 29.910156 46.824219 L 31.242188 48.882812 L 33.691406 48.222656 L 32.089844 50.191406 L 33.476562 52.316406 L 31.109375 51.402344 L 29.519531 53.378906 L 29.65625 50.84375 L 27.964844 50.199219 C 28.054688 50.027344 28.144531 49.855469 28.234375 49.6875 L 29.738281 49.289062 L 29.859375 46.90625 Z M 29.910156 46.824219 " fill-opacity="1" fill-rule="evenodd"/><path fill="#1a1a1a" d="M 40.183594 43.984375 L 41.5625 46.117188 L 44.007812 45.453125 L 42.410156 47.421875 L 43.792969 49.546875 L 41.429688 48.632812 L 39.839844 50.609375 L 39.976562 48.074219 L 37.609375 47.171875 L 40.058594 46.519531 Z M 40.183594 43.984375 " fill-opacity="1" fill-rule="evenodd"/><path fill="#1a1a1a" d="M 50.503906 41.214844 L 51.882812 43.347656 L 54.328125 42.6875 L 52.730469 44.65625 L 54.113281 46.78125 L 51.75 45.867188 L 50.15625 47.839844 L 50.296875 45.308594 L 47.925781 44.402344 L 50.375 43.75 Z M 50.503906 41.214844 " fill-opacity="1" fill-rule="evenodd"/><path fill="#1a1a1a" d="M 23.871094 60.367188 L 25.746094 59.859375 L 24.144531 61.828125 L 25.53125 63.953125 L 23.179688 63.046875 C 23.386719 62.144531 23.621094 61.25 23.871094 60.367188 " fill-opacity="1" fill-rule="evenodd"/><path fill="#1a1a1a" d="M 32.238281 55.621094 L 33.617188 57.753906 L 36.0625 57.089844 L 34.464844 59.058594 L 35.847656 61.1875 L 33.484375 60.273438 L 31.894531 62.246094 L 32.03125 59.714844 L 29.664062 58.808594 L 32.113281 58.15625 Z M 32.238281 55.621094 " fill-opacity="1" fill-rule="evenodd"/><path fill="#1a1a1a" d="M 42.558594 52.855469 L 43.9375 54.984375 L 46.382812 54.324219 L 44.785156 56.292969 L 46.167969 58.417969 L 43.804688 57.503906 L 42.210938 59.480469 L 42.351562 56.945312 L 39.980469 56.039062 L 42.429688 55.386719 Z M 42.558594 52.855469 " fill-opacity="1" fill-rule="evenodd"/><path fill="#1a1a1a" d="M 73.515625 44.550781 L 74.894531 46.679688 L 77.339844 46.019531 L 75.742188 47.988281 L 77.125 50.113281 L 74.761719 49.199219 L 73.171875 51.175781 L 73.308594 48.640625 L 70.941406 47.738281 L 73.390625 47.085938 Z M 73.515625 44.550781 " fill-opacity="1" fill-rule="evenodd"/><path fill="#1a1a1a" d="M 24.292969 67.257812 L 25.671875 69.390625 L 28.117188 68.730469 L 27.523438 69.464844 L 24.183594 69.464844 Z M 24.292969 67.257812 " fill-opacity="1" fill-rule="evenodd"/><path fill="#1a1a1a" d="M 34.613281 64.492188 L 35.992188 66.621094 L 38.4375 65.960938 L 36.839844 67.929688 L 37.835938 69.464844 L 36.691406 69.464844 L 35.859375 69.140625 L 35.597656 69.464844 L 34.355469 69.464844 L 34.40625 68.582031 L 32.035156 67.679688 L 34.484375 67.027344 Z M 34.613281 64.492188 " fill-opacity="1" fill-rule="evenodd"/><path fill="#1a1a1a" d="M 44.933594 61.722656 L 46.308594 63.855469 L 47.277344 63.59375 L 45.34375 66.945312 L 44.59375 68.25 L 44.722656 65.816406 L 42.355469 64.910156 L 44.804688 64.257812 Z M 44.933594 61.722656 " fill-opacity="1" fill-rule="evenodd"/><path fill="#1a1a1a" d="M 57.757812 62.828125 L 58.863281 64.519531 L 57.164062 63.863281 Z M 57.757812 62.828125 " fill-opacity="1" fill-rule="evenodd"/><path fill="#1a1a1a" d="M 65.570312 56.1875 L 66.949219 58.316406 L 69.394531 57.65625 L 67.796875 59.625 L 69.179688 61.75 L 66.816406 60.835938 L 65.226562 62.8125 L 65.363281 60.277344 L 62.996094 59.375 L 65.445312 58.722656 Z M 65.570312 56.1875 " fill-opacity="1" fill-rule="evenodd"/><path fill="#1a1a1a" d="M 75.890625 53.417969 L 77.265625 55.550781 L 79.714844 54.890625 L 78.117188 56.859375 L 79.5 58.984375 L 77.136719 58.070312 L 75.542969 60.042969 L 75.683594 57.511719 L 73.3125 56.605469 L 75.761719 55.953125 Z M 75.890625 53.417969 " fill-opacity="1" fill-rule="evenodd"/><path fill="#1a1a1a" d="M 93.277344 25.101562 C 93.421875 25.15625 93.566406 25.207031 93.710938 25.261719 L 93.089844 25.429688 Z M 93.277344 25.101562 " fill-opacity="1" fill-rule="evenodd"/><path fill="#1a1a1a" d="M 90.4375 30.027344 L 99.175781 27.683594 C 101.230469 28.742188 103.207031 29.929688 105.097656 31.238281 L 81.375 37.601562 L 82.511719 35.628906 L 84.8125 34.726562 L 85.097656 34.230469 C 86.492188 34.691406 88.074219 34.125 88.835938 32.800781 Z M 90.4375 30.027344 " fill-opacity="1" fill-rule="evenodd"/><path fill="#1a1a1a" d="M 80.902344 41.617188 L 108.882812 34.109375 C 110.390625 35.359375 111.820312 36.695312 113.175781 38.101562 L 82.1875 46.414062 Z M 80.902344 41.617188 " fill-opacity="1" fill-rule="evenodd"/><path fill="#1a1a1a" d="M 83.15625 50.039062 L 115.976562 41.238281 C 117.105469 42.609375 118.167969 44.042969 119.15625 45.527344 L 84.441406 54.839844 Z M 83.15625 50.039062 " fill-opacity="1" fill-rule="evenodd"/><path fill="#1a1a1a" d="M 56.238281 66.292969 L 121.210938 48.863281 C 122.042969 50.332031 122.804688 51.839844 123.496094 53.390625 L 63.582031 69.464844 L 54.800781 69.464844 L 56.164062 67.101562 L 55.96875 66.738281 C 56.058594 66.585938 56.15625 66.433594 56.21875 66.324219 Z M 44.410156 69.464844 L 46.847656 68.808594 L 47.417969 69.027344 L 47.417969 69.03125 L 47.734375 69.152344 L 48.074219 69.464844 Z M 44.410156 69.464844 " fill-opacity="1" fill-rule="evenodd"/><path fill="#1a1a1a" d="M 78.074219 69.464844 L 124.910156 56.898438 C 125.472656 58.449219 125.964844 60.035156 126.382812 61.648438 L 97.246094 69.464844 Z M 78.074219 69.464844 " fill-opacity="1" fill-rule="evenodd"/><path fill="#1a1a1a" d="M 111.738281 69.464844 L 127.195312 65.316406 C 127.445312 66.683594 127.644531 68.0625 127.789062 69.464844 Z M 111.738281 69.464844 " fill-opacity="1" fill-rule="evenodd"/><path fill="#1a1a1a" d="M 74.953125 113.054688 L 76.496094 117.839844 L 81.519531 117.832031 L 77.449219 120.777344 L 79.011719 125.558594 L 74.953125 122.59375 L 70.894531 125.558594 L 72.457031 120.777344 L 68.386719 117.832031 L 73.410156 117.839844 Z M 74.953125 113.054688 " fill-opacity="1" fill-rule="evenodd"/><path fill="#1a1a1a" d="M 58.417969 114.886719 L 59.507812 118.269531 L 63.058594 118.261719 L 60.183594 120.347656 L 61.285156 123.722656 L 58.417969 121.628906 L 55.550781 123.722656 L 56.65625 120.347656 L 53.777344 118.261719 L 57.328125 118.269531 Z M 58.417969 114.886719 " fill-opacity="1" fill-rule="evenodd"/><path fill="#1a1a1a" d="M 91.488281 114.886719 L 92.578125 118.269531 L 96.128906 118.261719 L 93.253906 120.347656 L 94.355469 123.722656 L 91.488281 121.628906 L 88.621094 123.722656 L 89.722656 120.347656 L 86.847656 118.261719 L 90.398438 118.269531 Z M 91.488281 114.886719 " fill-opacity="1" fill-rule="evenodd"/><g fill="#cd1223" fill-opacity="1"><g transform="translate(20.327525, 104.385342)"><g><path d="M 9.859375 -28.296875 L 9.859375 -24.53125 L 7.484375 -24.53125 L 7.484375 0 L 2.640625 0 L 2.640625 -24.53125 L 0.28125 -24.53125 L 0.28125 -28.296875 Z M 9.859375 -28.296875 "/></g></g></g><g fill="#cd1223" fill-opacity="1"><g transform="translate(30.362873, 104.385342)"><g><path d="M 5.921875 -28.296875 L 5.921875 -17 L 6.09375 -17.03125 L 7.84375 -28.296875 L 12.609375 -28.296875 L 9.859375 -15.78125 L 12.96875 0 L 8.125 0 L 6.09375 -13.734375 L 5.921875 -13.734375 L 5.921875 0 L 1.21875 0 L 1.21875 -28.296875 Z M 5.921875 -28.296875 "/></g></g></g><g fill="#cd1223" fill-opacity="1"><g transform="translate(43.499429, 104.385342)"><g/></g></g><g fill="#cd1223" fill-opacity="1"><g transform="translate(48.761014, 104.385342)"><g><path d="M 6.859375 -28.296875 L 8.640625 -14.734375 L 8.890625 -14.734375 L 10.65625 -28.296875 L 16.3125 -28.296875 L 16.3125 0 L 11.984375 0 L 12.15625 -16.71875 L 11.875 -16.71875 L 10.03125 0 L 7.484375 0 L 5.640625 -16.71875 L 5.359375 -16.71875 L 5.546875 0 L 1.21875 0 L 1.21875 -28.296875 Z M 6.859375 -28.296875 "/></g></g></g><g fill="#cd1223" fill-opacity="1"><g transform="translate(66.113808, 104.385342)"><g><path d="M 5.859375 -4.78125 C 5.859375 -3.988281 6.125 -3.59375 6.65625 -3.59375 C 6.9375 -3.59375 7.128906 -3.675781 7.234375 -3.84375 C 7.335938 -4.019531 7.390625 -4.332031 7.390625 -4.78125 L 7.390625 -23.484375 C 7.390625 -24.296875 7.117188 -24.703125 6.578125 -24.703125 C 6.097656 -24.703125 5.859375 -24.296875 5.859375 -23.484375 Z M 1.046875 -22.828125 C 1.046875 -25.328125 1.367188 -26.894531 2.015625 -27.53125 C 2.671875 -28.15625 4.207031 -28.46875 6.625 -28.46875 C 9.0625 -28.46875 10.601562 -28.140625 11.25 -27.484375 C 11.90625 -26.835938 12.234375 -25.285156 12.234375 -22.828125 L 12.234375 -5.46875 C 12.234375 -3.007812 11.894531 -1.441406 11.21875 -0.765625 C 10.539062 -0.140625 9.03125 0.171875 6.6875 0.171875 C 4.25 0.171875 2.707031 -0.140625 2.0625 -0.765625 C 1.382812 -1.441406 1.046875 -3.007812 1.046875 -5.46875 Z M 1.046875 -22.828125 "/></g></g></g><g fill="#cd1223" fill-opacity="1"><g transform="translate(79.250363, 104.385342)"><g><path d="M 6.0625 -3.6875 L 6.484375 -3.6875 C 6.898438 -3.6875 7.179688 -3.769531 7.328125 -3.9375 C 7.484375 -4.101562 7.5625 -4.519531 7.5625 -5.1875 L 7.5625 -23.0625 C 7.5625 -23.757812 7.484375 -24.1875 7.328125 -24.34375 C 7.179688 -24.507812 6.875 -24.59375 6.40625 -24.59375 L 6.0625 -24.59375 Z M 7.140625 -28.296875 C 9.367188 -28.296875 10.796875 -27.957031 11.421875 -27.28125 C 12.078125 -26.632812 12.40625 -25.054688 12.40625 -22.546875 L 12.40625 -5.78125 C 12.40625 -3.226562 12.078125 -1.625 11.421875 -0.96875 C 10.796875 -0.320312 9.378906 0 7.171875 0 L 1.21875 0 L 1.21875 -28.296875 Z M 7.140625 -28.296875 "/></g></g></g><g fill="#cd1223" fill-opacity="1"><g transform="translate(92.595986, 104.385342)"><g><path d="M 8.953125 -28.296875 L 8.953125 -24.59375 L 6.0625 -24.59375 L 6.0625 -17.390625 L 8.953125 -17.390625 L 8.953125 -13.65625 L 6.0625 -13.65625 L 6.0625 -3.734375 L 8.953125 -3.734375 L 8.953125 0 L 1.21875 0 L 1.21875 -28.296875 Z M 8.953125 -28.296875 "/></g></g></g><g fill="#cd1223" fill-opacity="1"><g transform="translate(102.491958, 104.385342)"><g><path d="M 6.0625 -15.953125 C 6.101562 -15.953125 6.171875 -15.945312 6.265625 -15.9375 C 6.359375 -15.925781 6.429688 -15.921875 6.484375 -15.921875 C 6.898438 -15.921875 7.1875 -16.019531 7.34375 -16.21875 C 7.507812 -16.414062 7.59375 -16.804688 7.59375 -17.390625 L 7.59375 -22.828125 C 7.59375 -23.660156 7.507812 -24.160156 7.34375 -24.328125 C 7.1875 -24.503906 6.863281 -24.59375 6.375 -24.59375 L 6.0625 -24.59375 Z M 7.140625 -28.296875 C 9.253906 -28.296875 10.660156 -27.9375 11.359375 -27.21875 C 12.054688 -26.519531 12.40625 -24.960938 12.40625 -22.546875 L 12.40625 -18.84375 C 12.40625 -17.3125 12.242188 -16.195312 11.921875 -15.5 C 11.617188 -14.875 11.046875 -14.363281 10.203125 -13.96875 C 10.992188 -13.664062 11.554688 -13.195312 11.890625 -12.5625 C 12.234375 -11.925781 12.40625 -10.941406 12.40625 -9.609375 L 12.40625 0 L 7.59375 0 L 7.59375 -10.484375 C 7.59375 -10.953125 7.5 -11.285156 7.3125 -11.484375 C 7.125 -11.679688 6.835938 -11.78125 6.453125 -11.78125 C 6.398438 -11.78125 6.332031 -11.773438 6.25 -11.765625 C 6.164062 -11.753906 6.101562 -11.75 6.0625 -11.75 L 6.0625 0 L 1.21875 0 L 1.21875 -28.296875 Z M 7.140625 -28.296875 "/></g></g></g><g fill="#cd1223" fill-opacity="1"><g transform="translate(115.907274, 104.385342)"><g><path d="M 5.546875 -28.296875 L 8.1875 -14.1875 L 8.390625 -14.1875 L 8.328125 -28.296875 L 12.515625 -28.296875 L 12.515625 0 L 8.21875 0 L 5.546875 -14.5 L 5.328125 -14.5 L 5.4375 0 L 1.21875 0 L 1.21875 -28.296875 Z M 5.546875 -28.296875 "/></g></g></g><g fill="#1a1a1a" fill-opacity="1"><g transform="translate(41.977069, 110.693906)"><g><path d="M 1.734375 -3.78125 L 2.390625 -3.78125 L 3.90625 0 L 3.203125 0 L 2.859375 -0.875 L 1.265625 -0.875 L 0.921875 0 L 0.21875 0 Z M 2.671875 -1.4375 L 2.0625 -3.046875 L 1.453125 -1.4375 Z M 2.671875 -1.4375 "/></g></g></g><g fill="#1a1a1a" fill-opacity="1"><g transform="translate(49.08234, 110.693906)"><g><path d="M 1.90625 0.078125 C 1.375 0.078125 0.972656 -0.0546875 0.703125 -0.328125 C 0.429688 -0.609375 0.296875 -0.988281 0.296875 -1.46875 L 0.296875 -3.78125 L 0.984375 -3.78125 L 0.984375 -1.453125 C 0.984375 -1.160156 1.066406 -0.9375 1.234375 -0.78125 C 1.398438 -0.625 1.625 -0.546875 1.90625 -0.546875 C 2.1875 -0.546875 2.410156 -0.625 2.578125 -0.78125 C 2.753906 -0.9375 2.84375 -1.160156 2.84375 -1.453125 L 2.84375 -3.78125 L 3.53125 -3.78125 L 3.53125 -1.46875 C 3.53125 -0.988281 3.394531 -0.609375 3.125 -0.328125 C 2.851562 -0.0546875 2.445312 0.078125 1.90625 0.078125 Z M 1.90625 0.078125 "/></g></g></g><g fill="#1a1a1a" fill-opacity="1"><g transform="translate(55.890206, 110.693906)"><g><path d="M 1.25 -3.21875 L 0.109375 -3.21875 L 0.109375 -3.78125 L 3.078125 -3.78125 L 3.078125 -3.21875 L 1.9375 -3.21875 L 1.9375 0 L 1.25 0 Z M 1.25 -3.21875 "/></g></g></g><g fill="#1a1a1a" fill-opacity="1"><g transform="translate(62.060005, 110.693906)"><g><path d="M 2.21875 0.078125 C 1.84375 0.078125 1.5 0 1.1875 -0.15625 C 0.882812 -0.320312 0.644531 -0.554688 0.46875 -0.859375 C 0.300781 -1.160156 0.21875 -1.503906 0.21875 -1.890625 C 0.21875 -2.273438 0.300781 -2.613281 0.46875 -2.90625 C 0.644531 -3.207031 0.882812 -3.441406 1.1875 -3.609375 C 1.5 -3.773438 1.84375 -3.859375 2.21875 -3.859375 C 2.59375 -3.859375 2.929688 -3.773438 3.234375 -3.609375 C 3.546875 -3.441406 3.785156 -3.207031 3.953125 -2.90625 C 4.128906 -2.613281 4.21875 -2.273438 4.21875 -1.890625 C 4.21875 -1.503906 4.128906 -1.160156 3.953125 -0.859375 C 3.785156 -0.566406 3.546875 -0.335938 3.234375 -0.171875 C 2.929688 -0.00390625 2.59375 0.078125 2.21875 0.078125 Z M 2.21875 -0.546875 C 2.457031 -0.546875 2.675781 -0.597656 2.875 -0.703125 C 3.070312 -0.816406 3.226562 -0.972656 3.34375 -1.171875 C 3.46875 -1.378906 3.53125 -1.617188 3.53125 -1.890625 C 3.53125 -2.148438 3.472656 -2.378906 3.359375 -2.578125 C 3.242188 -2.785156 3.085938 -2.945312 2.890625 -3.0625 C 2.691406 -3.175781 2.46875 -3.234375 2.21875 -3.234375 C 1.976562 -3.234375 1.753906 -3.175781 1.546875 -3.0625 C 1.347656 -2.945312 1.191406 -2.785156 1.078125 -2.578125 C 0.960938 -2.378906 0.90625 -2.148438 0.90625 -1.890625 C 0.90625 -1.617188 0.960938 -1.378906 1.078125 -1.171875 C 1.203125 -0.972656 1.363281 -0.816406 1.5625 -0.703125 C 1.757812 -0.597656 1.976562 -0.546875 2.21875 -0.546875 Z M 2.21875 -0.546875 "/></g></g></g><g fill="#1a1a1a" fill-opacity="1"><g transform="translate(69.484313, 110.693906)"><g/></g></g><g fill="#1a1a1a" fill-opacity="1"><g transform="translate(74.415824, 110.693906)"><g><path d="M 0.328125 -3.78125 L 1.90625 -3.78125 C 2.320312 -3.78125 2.644531 -3.675781 2.875 -3.46875 C 3.101562 -3.257812 3.21875 -2.960938 3.21875 -2.578125 C 3.21875 -2.296875 3.144531 -2.054688 3 -1.859375 C 2.863281 -1.671875 2.671875 -1.535156 2.421875 -1.453125 L 3.1875 0 L 2.484375 0 L 1.75 -1.390625 L 1.015625 -1.390625 L 1.015625 0 L 0.328125 0 Z M 1.78125 -1.953125 C 2 -1.953125 2.175781 -2.003906 2.3125 -2.109375 C 2.457031 -2.210938 2.53125 -2.367188 2.53125 -2.578125 C 2.53125 -3.003906 2.28125 -3.21875 1.78125 -3.21875 L 1.015625 -3.21875 L 1.015625 -1.953125 Z M 1.78125 -1.953125 "/></g></g></g><g fill="#1a1a1a" fill-opacity="1"><g transform="translate(80.828951, 110.693906)"><g><path d="M 0.328125 -3.78125 L 2.875 -3.78125 L 2.875 -3.21875 L 1.015625 -3.21875 L 1.015625 -2.171875 L 2.40625 -2.171875 L 2.40625 -1.609375 L 1.015625 -1.609375 L 1.015625 -0.5625 L 2.875 -0.5625 L 2.875 0 L 0.328125 0 Z M 0.328125 -3.78125 "/></g></g></g><g fill="#1a1a1a" fill-opacity="1"><g transform="translate(86.858154, 110.693906)"><g><path d="M 0.328125 -3.78125 L 1.84375 -3.78125 C 2.25 -3.78125 2.578125 -3.671875 2.828125 -3.453125 C 3.085938 -3.234375 3.21875 -2.929688 3.21875 -2.546875 C 3.21875 -2.148438 3.09375 -1.847656 2.84375 -1.640625 C 2.59375 -1.429688 2.253906 -1.328125 1.828125 -1.328125 L 1.015625 -1.328125 L 1.015625 0 L 0.328125 0 Z M 1.75 -1.890625 C 2.269531 -1.890625 2.53125 -2.109375 2.53125 -2.546875 C 2.53125 -2.992188 2.269531 -3.21875 1.75 -3.21875 L 1.015625 -3.21875 L 1.015625 -1.890625 Z M 1.75 -1.890625 "/></g></g></g><g fill="#1a1a1a" fill-opacity="1"><g transform="translate(93.163139, 110.693906)"><g><path d="M 1.734375 -3.78125 L 2.390625 -3.78125 L 3.90625 0 L 3.203125 0 L 2.859375 -0.875 L 1.265625 -0.875 L 0.921875 0 L 0.21875 0 Z M 2.671875 -1.4375 L 2.0625 -3.046875 L 1.453125 -1.4375 Z M 2.671875 -1.4375 "/></g></g></g><g fill="#1a1a1a" fill-opacity="1"><g transform="translate(100.268407, 110.693906)"><g><path d="M 0.328125 -3.78125 L 1.015625 -3.78125 L 1.015625 0 L 0.328125 0 Z M 0.328125 -3.78125 "/></g></g></g><g fill="#1a1a1a" fill-opacity="1"><g transform="translate(104.588877, 110.693906)"><g><path d="M 0.328125 -3.78125 L 1.90625 -3.78125 C 2.320312 -3.78125 2.644531 -3.675781 2.875 -3.46875 C 3.101562 -3.257812 3.21875 -2.960938 3.21875 -2.578125 C 3.21875 -2.296875 3.144531 -2.054688 3 -1.859375 C 2.863281 -1.671875 2.671875 -1.535156 2.421875 -1.453125 L 3.1875 0 L 2.484375 0 L 1.75 -1.390625 L 1.015625 -1.390625 L 1.015625 0 L 0.328125 0 Z M 1.78125 -1.953125 C 2 -1.953125 2.175781 -2.003906 2.3125 -2.109375 C 2.457031 -2.210938 2.53125 -2.367188 2.53125 -2.578125 C 2.53125 -3.003906 2.28125 -3.21875 1.78125 -3.21875 L 1.015625 -3.21875 L 1.015625 -1.953125 Z M 1.78125 -1.953125 "/></g></g></g></svg>